<svg width="112" height="32" viewBox="0 0 112 32" fill="none" xmlns="http://www.w3.org/2000/svg">
<g clip-path="url(#clip0_1_3742)">
<path d="M19.5386 23.4367C19.3905 23.585 19.2145 23.7026 19.0208 23.7828C18.8272 23.8631 18.6196 23.9044 18.4099 23.9044C18.2003 23.9044 17.9927 23.8631 17.7991 23.7828C17.6054 23.7026 17.4294 23.585 17.2812 23.4367L8.09927 14.2562C6.77497 12.9049 6.03747 11.0855 6.04703 9.19348C6.05658 7.30146 6.81243 5.48965 8.1503 4.15177C9.48818 2.81389 11.3 2.05805 13.192 2.04849C15.084 2.03894 16.9034 2.77644 18.2547 4.10074L24.0578 9.90384C24.3564 10.204 24.5235 10.6104 24.5224 11.0338C24.5214 11.4571 24.3521 11.8627 24.052 12.1613C23.7519 12.4598 23.3455 12.627 22.9221 12.6259C22.4988 12.6248 22.0932 12.4556 21.7946 12.1555L15.9988 6.35234C15.25 5.60358 14.2345 5.18293 13.1755 5.18293C12.1166 5.18293 11.1011 5.60358 10.3523 6.35234C9.60357 7.1011 9.18291 8.11664 9.18291 9.17555C9.18291 10.2345 9.60357 11.25 10.3523 11.9988L19.5343 21.1807C19.8339 21.4794 20.0026 21.8848 20.0034 22.3078C20.0042 22.7308 19.8371 23.1369 19.5386 23.4367Z" fill="#E7DEFE"/>
<path d="M24.0012 27.8993C22.6533 29.2438 20.8273 29.9988 18.9235 29.9988C17.0197 29.9988 15.1936 29.2438 13.8458 27.8993L8.04992 22.0962C7.88908 21.9511 7.75947 21.7748 7.66897 21.578C7.57847 21.3812 7.52898 21.168 7.52352 20.9515C7.51805 20.735 7.55673 20.5196 7.63719 20.3185C7.71765 20.1173 7.8382 19.9347 7.99152 19.7817C8.14483 19.6287 8.32769 19.5085 8.52895 19.4284C8.73022 19.3483 8.94567 19.3101 9.1622 19.316C9.37873 19.3219 9.59179 19.3718 9.78841 19.4626C9.98504 19.5535 10.1611 19.6835 10.3059 19.8446L16.1017 25.6477C16.8516 26.3876 17.8638 26.8009 18.9172 26.7974C19.9707 26.7938 20.98 26.3738 21.725 25.6288C22.4699 24.8839 22.89 23.8746 22.8935 22.8211C22.897 21.7676 22.4837 20.7555 21.7438 20.0056L12.5618 10.8193C12.2625 10.5199 12.0943 10.1139 12.0943 9.69059C12.0943 9.26724 12.2625 8.86124 12.5618 8.56188C12.8612 8.26253 13.2672 8.09436 13.6905 8.09436C14.1139 8.09436 14.5199 8.26253 14.8192 8.56188L24.0012 17.7439C25.346 19.0915 26.1013 20.9177 26.1013 22.8216C26.1013 24.7255 25.346 26.5516 24.0012 27.8993Z" fill="#E7DEFE"/>
</g>
<path d="M51.592 20.832H56.968V24H47.488V7.152H51.592V20.832ZM66.1735 24.168C64.5895 24.168 63.1335 23.8 61.8055 23.064C60.4935 22.328 59.4455 21.304 58.6615 19.992C57.8935 18.664 57.5095 17.176 57.5095 15.528C57.5095 13.88 57.8935 12.4 58.6615 11.088C59.4455 9.776 60.4935 8.752 61.8055 8.016C63.1335 7.28 64.5895 6.912 66.1735 6.912C67.7575 6.912 69.2055 7.28 70.5175 8.016C71.8455 8.752 72.8855 9.776 73.6375 11.088C74.4055 12.4 74.7895 13.88 74.7895 15.528C74.7895 17.176 74.4055 18.664 73.6375 19.992C72.8695 21.304 71.8295 22.328 70.5175 23.064C69.2055 23.8 67.7575 24.168 66.1735 24.168ZM66.1735 20.424C67.5175 20.424 68.5895 19.976 69.3895 19.08C70.2055 18.184 70.6135 17 70.6135 15.528C70.6135 14.04 70.2055 12.856 69.3895 11.976C68.5895 11.08 67.5175 10.632 66.1735 10.632C64.8135 10.632 63.7255 11.072 62.9095 11.952C62.1095 12.832 61.7095 14.024 61.7095 15.528C61.7095 17.016 62.1095 18.208 62.9095 19.104C63.7255 19.984 64.8135 20.424 66.1735 20.424ZM87.5367 12.48C87.2327 11.92 86.7927 11.496 86.2167 11.208C85.6567 10.904 84.9927 10.752 84.2247 10.752C82.8967 10.752 81.8327 11.192 81.0327 12.072C80.2327 12.936 79.8327 14.096 79.8327 15.552C79.8327 17.104 80.2487 18.32 81.0807 19.2C81.9287 20.064 83.0887 20.496 84.5607 20.496C85.5687 20.496 86.4167 20.24 87.1047 19.728C87.8087 19.216 88.3207 18.48 88.6407 17.52H83.4327V14.496H92.3607V18.312C92.0567 19.336 91.5367 20.288 90.8007 21.168C90.0807 22.048 89.1607 22.76 88.0407 23.304C86.9207 23.848 85.6567 24.12 84.2487 24.12C82.5847 24.12 81.0967 23.76 79.7847 23.04C78.4887 22.304 77.4727 21.288 76.7367 19.992C76.0167 18.696 75.6567 17.216 75.6567 15.552C75.6567 13.888 76.0167 12.408 76.7367 11.112C77.4727 9.8 78.4887 8.784 79.7847 8.064C81.0807 7.328 82.5607 6.96 84.2247 6.96C86.2407 6.96 87.9367 7.448 89.3127 8.424C90.7047 9.4 91.6247 10.752 92.0727 12.48H87.5367ZM101.882 24.168C100.298 24.168 98.8419 23.8 97.5139 23.064C96.2019 22.328 95.1539 21.304 94.3699 19.992C93.6019 18.664 93.2179 17.176 93.2179 15.528C93.2179 13.88 93.6019 12.4 94.3699 11.088C95.1539 9.776 96.2019 8.752 97.5139 8.016C98.8419 7.28 100.298 6.912 101.882 6.912C103.466 6.912 104.914 7.28 106.226 8.016C107.554 8.752 108.594 9.776 109.346 11.088C110.114 12.4 110.498 13.88 110.498 15.528C110.498 17.176 110.114 18.664 109.346 19.992C108.578 21.304 107.538 22.328 106.226 23.064C104.914 23.8 103.466 24.168 101.882 24.168ZM101.882 20.424C103.226 20.424 104.298 19.976 105.098 19.08C105.914 18.184 106.322 17 106.322 15.528C106.322 14.04 105.914 12.856 105.098 11.976C104.298 11.08 103.226 10.632 101.882 10.632C100.522 10.632 99.4339 11.072 98.6179 11.952C97.8179 12.832 97.4179 14.024 97.4179 15.528C97.4179 17.016 97.8179 18.208 98.6179 19.104C99.4339 19.984 100.522 20.424 101.882 20.424Z" fill="#E7DEFE"/>
<defs>
<clipPath id="clip0_1_3742">
<rect width="20.1005" height="28" fill="white" transform="translate(6 2)"/>
</clipPath>
</defs>
</svg>
